<svg width="28" height="18" viewBox="0 0 28 18" fill="none" xmlns="http://www.w3.org/2000/svg">
<path fill-rule="evenodd" clip-rule="evenodd" d="M9.75073 9.53674e-06H10.1649H26.1649H27.1649V1.00001V17V18H26.1649H10.1649H9.75073L9.45784 17.7071L1.45784 9.70712L0.750732 9.00001L1.45784 8.2929L9.45784 0.292903L9.75073 9.53674e-06ZM10.5792 2.00001L3.57916 9.00001L10.5792 16H25.1649V2.00001H10.5792ZM14.1649 4.58579L14.8721 5.29289L17.165 7.58579L19.4578 5.2929L20.1649 4.5858L21.5792 6.00001L20.8721 6.70712L18.5792 9L20.8721 11.2929L21.5792 12L20.1649 13.4142L19.4578 12.7071L17.165 10.4142L14.8721 12.7071L14.1649 13.4142L12.7507 12L13.4578 11.2929L15.7507 9L13.4578 6.70711L12.7507 6L14.1649 4.58579Z" fill="white"/>
</svg>
