<svg width="17" height="18" viewBox="0 0 17 18" fill="none" xmlns="http://www.w3.org/2000/svg">
<path d="M8.33777 0.567999C8.95643 0.567999 9.45777 0.759999 9.84177 1.144C10.2258 1.528 10.4178 2.02933 10.4178 2.648C10.4178 3.26667 10.2258 3.768 9.84177 4.152C9.45777 4.536 8.95643 4.728 8.33777 4.728C7.7191 4.728 7.21777 4.536 6.83377 4.152C6.44977 3.768 6.25777 3.26667 6.25777 2.648C6.25777 2.02933 6.44977 1.528 6.83377 1.144C7.21777 0.759999 7.7191 0.567999 8.33777 0.567999ZM16.1138 7.672V10.072H0.561767V7.672H16.1138ZM8.33777 13.08C8.95643 13.08 9.45777 13.272 9.84177 13.656C10.2258 14.04 10.4178 14.5413 10.4178 15.16C10.4178 15.7787 10.2258 16.28 9.84177 16.664C9.45777 17.048 8.95643 17.24 8.33777 17.24C7.7191 17.24 7.21777 17.048 6.83377 16.664C6.44977 16.28 6.25777 15.7787 6.25777 15.16C6.25777 14.5413 6.44977 14.04 6.83377 13.656C7.21777 13.272 7.7191 13.08 8.33777 13.08Z" fill="white"/>
<path d="M9.84177 1.144L9.13466 1.85111L9.13466 1.85111L9.84177 1.144ZM9.84177 4.152L9.13466 3.44489L9.13466 3.44489L9.84177 4.152ZM6.83377 4.152L7.54088 3.44489L7.54087 3.44489L6.83377 4.152ZM6.83377 1.144L7.54087 1.85111L7.54088 1.85111L6.83377 1.144ZM16.1138 7.672H17.1138V6.672H16.1138V7.672ZM16.1138 10.072V11.072H17.1138V10.072H16.1138ZM0.561767 10.072H-0.438233V11.072H0.561767V10.072ZM0.561767 7.672V6.672H-0.438233V7.672H0.561767ZM9.84177 13.656L9.13466 14.3631L9.13466 14.3631L9.84177 13.656ZM9.84177 16.664L9.13466 15.9569L9.13466 15.9569L9.84177 16.664ZM6.83377 16.664L7.54088 15.9569L7.54087 15.9569L6.83377 16.664ZM6.83377 13.656L7.54087 14.3631L7.54087 14.3631L6.83377 13.656ZM8.33777 1.568C8.73138 1.568 8.9648 1.68125 9.13466 1.85111L10.5489 0.436893C9.95073 -0.16125 9.18149 -0.432001 8.33777 -0.432001V1.568ZM9.13466 1.85111C9.30452 2.02096 9.41777 2.25439 9.41777 2.648H11.4178C11.4178 1.80427 11.147 1.03503 10.5489 0.436892L9.13466 1.85111ZM9.41777 2.648C9.41777 3.04161 9.30452 3.27503 9.13466 3.44489L10.5489 4.85911C11.147 4.26096 11.4178 3.49173 11.4178 2.648H9.41777ZM9.13466 3.44489C8.9648 3.61475 8.73138 3.728 8.33777 3.728V5.728C9.18149 5.728 9.95073 5.45725 10.5489 4.85911L9.13466 3.44489ZM8.33777 3.728C7.94416 3.728 7.71073 3.61475 7.54088 3.44489L6.12666 4.85911C6.7248 5.45725 7.49404 5.728 8.33777 5.728V3.728ZM7.54087 3.44489C7.37102 3.27503 7.25777 3.04161 7.25777 2.648H5.25777C5.25777 3.49173 5.52852 4.26096 6.12666 4.85911L7.54087 3.44489ZM7.25777 2.648C7.25777 2.25439 7.37102 2.02096 7.54087 1.85111L6.12666 0.436892C5.52852 1.03503 5.25777 1.80427 5.25777 2.648H7.25777ZM7.54088 1.85111C7.71073 1.68125 7.94416 1.568 8.33777 1.568V-0.432001C7.49404 -0.432001 6.7248 -0.16125 6.12666 0.436893L7.54088 1.85111ZM15.1138 7.672V10.072H17.1138V7.672H15.1138ZM16.1138 9.072H0.561767V11.072H16.1138V9.072ZM1.56177 10.072V7.672H-0.438233V10.072H1.56177ZM0.561767 8.672H16.1138V6.672H0.561767V8.672ZM8.33777 14.08C8.73138 14.08 8.9648 14.1932 9.13466 14.3631L10.5489 12.9489C9.95073 12.3508 9.18149 12.08 8.33777 12.08V14.08ZM9.13466 14.3631C9.30452 14.533 9.41777 14.7664 9.41777 15.16H11.4178C11.4178 14.3163 11.147 13.547 10.5489 12.9489L9.13466 14.3631ZM9.41777 15.16C9.41777 15.5536 9.30452 15.787 9.13466 15.9569L10.5489 17.3711C11.147 16.773 11.4178 16.0037 11.4178 15.16H9.41777ZM9.13466 15.9569C8.9648 16.1268 8.73138 16.24 8.33777 16.24V18.24C9.18149 18.24 9.95073 17.9692 10.5489 17.3711L9.13466 15.9569ZM8.33777 16.24C7.94416 16.24 7.71073 16.1268 7.54088 15.9569L6.12666 17.3711C6.7248 17.9692 7.49404 18.24 8.33777 18.24V16.24ZM7.54087 15.9569C7.37102 15.787 7.25777 15.5536 7.25777 15.16H5.25777C5.25777 16.0037 5.52852 16.773 6.12666 17.3711L7.54087 15.9569ZM7.25777 15.16C7.25777 14.7664 7.37102 14.533 7.54087 14.3631L6.12666 12.9489C5.52852 13.547 5.25777 14.3163 5.25777 15.16H7.25777ZM7.54087 14.3631C7.71073 14.1932 7.94416 14.08 8.33777 14.08V12.08C7.49404 12.08 6.7248 12.3508 6.12666 12.9489L7.54087 14.3631Z"/>
</svg>
